<svg width="26" height="26" viewBox="0 0 26 26" fill="none" xmlns="http://www.w3.org/2000/svg">
<path d="M13 4.97787C11.8196 3.89249 10.2746 3.29009 8.67102 3.29004C7.82227 3.29092 6.98208 3.45965 6.19879 3.7865C5.41549 4.11335 4.70457 4.59187 4.10694 5.19454C1.55785 7.75446 1.55894 11.7585 4.1091 14.3075L12.0521 22.2505C12.2363 22.5745 12.5916 22.7835 13 22.7835C13.1677 22.7819 13.3327 22.741 13.4817 22.664C13.6307 22.5871 13.7596 22.4762 13.858 22.3405L21.8909 14.3075C24.4411 11.7574 24.4411 7.75446 21.8888 5.19021C21.2914 4.58865 20.5811 4.11109 19.7986 3.785C19.016 3.4589 18.1768 3.29069 17.329 3.29004C15.7255 3.2903 14.1805 3.89267 13 4.97787ZM20.3569 6.72204C22.0502 8.42396 22.0513 11.0825 20.3591 12.7757L13 20.1348L5.64094 12.7757C3.94877 11.0825 3.94985 8.42396 5.63877 6.72637C6.4621 5.90737 7.53894 5.45671 8.67102 5.45671C9.8031 5.45671 10.8756 5.90737 11.6924 6.72421L12.2341 7.26587C12.3346 7.36656 12.454 7.44645 12.5854 7.50095C12.7169 7.55545 12.8577 7.58351 13 7.58351C13.1423 7.58351 13.2832 7.55545 13.4146 7.50095C13.546 7.44645 13.6654 7.36656 13.7659 7.26587L14.3076 6.72421C15.9456 5.08946 18.7211 5.09379 20.3569 6.72204Z" fill="#8E8E8E"/>
</svg>
