<svg width="24" height="24" viewBox="0 0 24 24" fill="none" xmlns="http://www.w3.org/2000/svg">
<path d="M23.5 9.00076C23.775 9.00076 24 8.74763 24 8.43826V6.56326C24 6.25388 23.775 6.00076 23.5 6.00076H21.5L22.275 2.22263C22.3458 1.87107 22.1083 1.53357 21.7875 1.53357H19.8667C19.6292 1.53357 19.425 1.72107 19.3792 1.97888L18.7792 6.00076H14.2L13.3792 1.96951C13.325 1.71169 13.125 1.53357 12.8917 1.53357H11.0583C10.825 1.53357 10.625 1.71169 10.5708 1.96951L9.7375 6.00076H5.20833L4.47917 1.98357C4.43333 1.72107 4.225 1.53357 3.9875 1.53357H2.23333C1.9125 1.53357 1.675 1.86638 1.74583 2.21794L2.5 6.00076H0.5C0.225 6.00076 0 6.25388 0 6.56326V8.43826C0 8.74763 0.225 9.00076 0.5 9.00076H3.09583L3.39583 10.5008H0.5C0.225 10.5008 0 10.7539 0 11.0633V12.9383C0 13.2476 0.225 13.5008 0.5 13.5008H3.99583L5.7 22.0601C5.75 22.3179 5.95417 22.5008 6.1875 22.5008H8.55417C8.7875 22.5008 8.9875 22.3179 9.04167 22.0648L10.8042 13.5008H13.1L14.8667 22.0648C14.9208 22.3179 15.1208 22.5008 15.3542 22.5008H17.7208C17.9542 22.5008 18.1542 22.3179 18.2083 22.0648L19.9625 13.5008H23.5C23.775 13.5008 24 13.2476 24 12.9383V11.0633C24 10.7539 23.775 10.5008 23.5 10.5008H20.5792L20.8875 9.00076H23.5ZM7.65833 16.032C7.4 17.2414 7.375 18.2445 7.35417 18.2445H7.30833C7.30833 18.2445 7.2375 17.2133 7.025 16.032L6.56667 13.5008H8.18333L7.65833 16.032ZM8.80417 10.5008H6.02083L5.75 9.00076H9.11667L8.80417 10.5008ZM11.425 10.5008L11.5083 10.0976C11.5875 9.72263 11.6542 9.34763 11.7083 9.00076H12.2C12.2542 9.34763 12.3208 9.72263 12.4 10.0976L12.4833 10.5008H11.425ZM16.8792 16.032C16.6667 17.2133 16.5958 18.2445 16.5958 18.2445H16.55C16.525 18.2445 16.5042 17.2414 16.2458 16.032L15.7292 13.5008H17.3583L16.8792 16.032ZM17.9292 10.5008H15.1208L14.8167 9.00076H18.2167L17.9292 10.5008Z" fill="black"/>
</svg>
