<svg width="26" height="26" viewBox="0 0 26 26" fill="none" xmlns="http://www.w3.org/2000/svg">
<path d="M21.5615 9.30158C21.5101 9.184 21.4382 9.07652 21.3492 8.98416L14.8492 2.48416C14.7568 2.3951 14.6493 2.32319 14.5318 2.27183C14.4993 2.25666 14.4646 2.248 14.4299 2.23608C14.3393 2.20523 14.2449 2.18665 14.1493 2.18083C14.1266 2.17866 14.106 2.16675 14.0833 2.16675H6.49992C5.305 2.16675 4.33325 3.1385 4.33325 4.33341V21.6667C4.33325 22.8617 5.305 23.8334 6.49992 23.8334H19.4999C20.6948 23.8334 21.6666 22.8617 21.6666 21.6667V9.75008C21.6666 9.72733 21.6547 9.70675 21.6525 9.68291C21.6472 9.58727 21.6286 9.49284 21.5973 9.40233C21.5864 9.36766 21.5767 9.33408 21.5615 9.30158ZM17.9681 8.66675H15.1666V5.86525L17.9681 8.66675ZM6.49992 21.6667V4.33341H12.9999V9.75008C12.9999 10.0374 13.1141 10.3129 13.3172 10.5161C13.5204 10.7193 13.7959 10.8334 14.0833 10.8334H19.4999L19.5021 21.6667H6.49992Z" fill="#8E8E8E"/>
<path d="M8.66675 13.0001H17.3334V15.1667H8.66675V13.0001ZM8.66675 17.3334H17.3334V19.5001H8.66675V17.3334ZM8.66675 8.66675H10.8334V10.8334H8.66675V8.66675Z" fill="#8E8E8E"/>
</svg>
