<svg width="26" height="26" viewBox="0 0 26 26" fill="currentColor" xmlns="http://www.w3.org/2000/svg">
<path d="M20.5833 4.33341H17.3333V2.16675H15.1667V4.33341H10.8333V2.16675H8.66667V4.33341H5.41667C4.22175 4.33341 3.25 5.30516 3.25 6.50008V21.6667C3.25 22.8617 4.22175 23.8334 5.41667 23.8334H20.5833C21.7783 23.8334 22.75 22.8617 22.75 21.6667V6.50008C22.75 5.30516 21.7783 4.33341 20.5833 4.33341ZM5.41667 21.6667V7.58341H20.5833V6.50008L20.5855 21.6667H5.41667Z" fill="currentColor"/>
<path d="M7.5835 9.75H18.4168V11.9167H7.5835V9.75ZM7.5835 14.0833H13.0002V16.25H7.5835V14.0833Z" fill="currentColor"/>
</svg>
