<svg width="60" height="60" viewBox="0 0 60 60" fill="none" xmlns="http://www.w3.org/2000/svg">
    <path d="M0 0H60V60H0V0ZM10 50H50V10H10V50ZM40 20C40 17.3478 41.0536 14.8043 42.9289 12.9289C44.8043 11.0536 47.3478 10 50 10C52.6522 10 55.1957 11.0536 57.0711 12.9289C58.9464 14.8043 60 17.3478 60 20C60 22.6522 58.9464 25.1957 57.0711 27.0711C55.1957 28.9464 52.6522 30 50 30C47.3478 30 44.8043 28.9464 42.9289 27.0711C41.0536 25.1957 40 22.6522 40 20ZM10 10L25 25L30 20L50 40H10V10Z" fill="#888888"/>
</svg>
