<svg width="26" height="26" viewBox="0 0 26 26" fill="currentColor" xmlns="http://www.w3.org/2000/svg">
<path d="M13 2.16675C11.9287 2.16675 10.8814 2.48443 9.99066 3.07962C9.0999 3.67481 8.40563 4.52078 7.99565 5.51055C7.58568 6.50031 7.47841 7.58942 7.68741 8.64015C7.89642 9.69088 8.4123 10.656 9.16984 11.4136C9.92737 12.1711 10.8925 12.687 11.9433 12.896C12.994 13.105 14.0831 12.9977 15.0729 12.5878C16.0626 12.1778 16.9086 11.4835 17.5038 10.5928C18.099 9.70199 18.4167 8.65473 18.4167 7.58342C18.4167 6.14683 17.846 4.76908 16.8302 3.75325C15.8143 2.73743 14.4366 2.16675 13 2.16675ZM13 10.8334C12.3572 10.8334 11.7289 10.6428 11.1944 10.2857C10.6599 9.92858 10.2434 9.421 9.99739 8.82714C9.75141 8.23328 9.68705 7.57981 9.81245 6.94937C9.93785 6.31893 10.2474 5.73984 10.7019 5.28532C11.1564 4.8308 11.7355 4.52126 12.366 4.39586C12.9964 4.27046 13.6499 4.33482 14.2437 4.58081C14.8376 4.82679 15.3452 5.24335 15.7023 5.77781C16.0594 6.31227 16.25 6.94063 16.25 7.58342C16.25 8.44537 15.9076 9.27202 15.2981 9.88151C14.6886 10.491 13.862 10.8334 13 10.8334ZM22.75 22.7501V21.6667C22.75 19.6555 21.951 17.7267 20.5289 16.3045C19.1067 14.8824 17.1779 14.0834 15.1667 14.0834H10.8333C8.82211 14.0834 6.89326 14.8824 5.47111 16.3045C4.04896 17.7267 3.25 19.6555 3.25 21.6667V22.7501H5.41667V21.6667C5.41667 20.2302 5.98735 18.8524 7.00317 17.8366C8.01899 16.8208 9.39674 16.2501 10.8333 16.2501H15.1667C16.6033 16.2501 17.981 16.8208 18.9968 17.8366C20.0127 18.8524 20.5833 20.2302 20.5833 21.6667V22.7501H22.75Z" fill="currentColor"/>
</svg>
